<mxfile host="app.diagrams.net" modified="2021-03-30T09:12:25.353Z" agent="5.0 (Macintosh; Intel Mac OS X 10_14_6) AppleWebKit/537.36 (KHTML, like Gecko) Chrome/89.0.4389.90 Safari/537.36" etag="rb0KGWsDWyue6AIht1_U" version="14.5.3" type="github" pages="2">
  <diagram id="N7GoM0KjDSYhO__YTOKm" name="数据质量特性">
    <mxGraphModel dx="1251" dy="714" grid="0" gridSize="10" guides="1" tooltips="1" connect="1" arrows="1" fold="1" page="1" pageScale="1" pageWidth="827" pageHeight="1169" math="0" shadow="0">
      <root>
        <mxCell id="0" />
        <mxCell id="1" parent="0" />
        <mxCell id="Yc6htWT6zWw5FXxjwAEh-1" value="&lt;font color=&quot;#ffffff&quot; style=&quot;font-size: 17px&quot;&gt;完整性&lt;/font&gt;" style="ellipse;whiteSpace=wrap;html=1;aspect=fixed;fillColor=#1ba1e2;strokeColor=#006EAF;fontColor=#ffffff;" parent="1" vertex="1">
          <mxGeometry x="400" y="160" width="80" height="80" as="geometry" />
        </mxCell>
        <mxCell id="Yc6htWT6zWw5FXxjwAEh-2" value="&lt;font style=&quot;font-size: 18px&quot;&gt;&lt;b&gt;数据&lt;br&gt;质量&lt;/b&gt;&lt;/font&gt;" style="ellipse;whiteSpace=wrap;html=1;aspect=fixed;fillColor=#7247FF;strokeColor=#3700CC;fontColor=#ffffff;" parent="1" vertex="1">
          <mxGeometry x="400" y="280" width="80" height="80" as="geometry" />
        </mxCell>
        <mxCell id="Yc6htWT6zWw5FXxjwAEh-3" value="&lt;font style=&quot;font-size: 17px&quot; color=&quot;#ffffff&quot;&gt;一致性&lt;/font&gt;" style="ellipse;whiteSpace=wrap;html=1;aspect=fixed;fillColor=#f0a30a;strokeColor=#BD7000;fontColor=#ffffff;" parent="1" vertex="1">
          <mxGeometry x="280" y="280" width="80" height="80" as="geometry" />
        </mxCell>
        <mxCell id="Yc6htWT6zWw5FXxjwAEh-4" value="&lt;font style=&quot;font-size: 17px&quot;&gt;准确性&lt;/font&gt;" style="ellipse;whiteSpace=wrap;html=1;aspect=fixed;fillColor=#60a917;strokeColor=#2D7600;fontColor=#ffffff;" parent="1" vertex="1">
          <mxGeometry x="520" y="280" width="80" height="80" as="geometry" />
        </mxCell>
        <mxCell id="Yc6htWT6zWw5FXxjwAEh-5" value="&lt;font style=&quot;font-size: 17px&quot;&gt;时效性&lt;/font&gt;" style="ellipse;whiteSpace=wrap;html=1;aspect=fixed;fillColor=#008a00;strokeColor=#005700;fontColor=#ffffff;" parent="1" vertex="1">
          <mxGeometry x="400" y="400" width="80" height="80" as="geometry" />
        </mxCell>
        <mxCell id="Yc6htWT6zWw5FXxjwAEh-6" value="" style="shape=flexArrow;endArrow=classic;html=1;exitX=0;exitY=0.5;exitDx=0;exitDy=0;entryX=1;entryY=0.5;entryDx=0;entryDy=0;fillColor=#f0a30a;strokeColor=#BD7000;" parent="1" source="Yc6htWT6zWw5FXxjwAEh-2" target="Yc6htWT6zWw5FXxjwAEh-3" edge="1">
          <mxGeometry width="50" height="50" relative="1" as="geometry">
            <mxPoint x="310" y="420" as="sourcePoint" />
            <mxPoint x="360" y="370" as="targetPoint" />
          </mxGeometry>
        </mxCell>
        <mxCell id="Yc6htWT6zWw5FXxjwAEh-7" value="" style="shape=flexArrow;endArrow=classic;html=1;exitX=1;exitY=0.5;exitDx=0;exitDy=0;entryX=0;entryY=0.5;entryDx=0;entryDy=0;fillColor=#60a917;strokeColor=#2D7600;" parent="1" source="Yc6htWT6zWw5FXxjwAEh-2" target="Yc6htWT6zWw5FXxjwAEh-4" edge="1">
          <mxGeometry width="50" height="50" relative="1" as="geometry">
            <mxPoint x="580" y="410" as="sourcePoint" />
            <mxPoint x="630" y="360" as="targetPoint" />
          </mxGeometry>
        </mxCell>
        <mxCell id="Yc6htWT6zWw5FXxjwAEh-8" value="" style="shape=flexArrow;endArrow=classic;html=1;exitX=0.5;exitY=1;exitDx=0;exitDy=0;entryX=0.5;entryY=0;entryDx=0;entryDy=0;fillColor=#008a00;strokeColor=#005700;" parent="1" source="Yc6htWT6zWw5FXxjwAEh-2" target="Yc6htWT6zWw5FXxjwAEh-5" edge="1">
          <mxGeometry width="50" height="50" relative="1" as="geometry">
            <mxPoint x="580" y="490" as="sourcePoint" />
            <mxPoint x="630" y="440" as="targetPoint" />
          </mxGeometry>
        </mxCell>
        <mxCell id="Yc6htWT6zWw5FXxjwAEh-9" value="" style="shape=flexArrow;endArrow=classic;html=1;exitX=0.5;exitY=0;exitDx=0;exitDy=0;fillColor=#1ba1e2;strokeColor=#006EAF;" parent="1" source="Yc6htWT6zWw5FXxjwAEh-2" edge="1">
          <mxGeometry width="50" height="50" relative="1" as="geometry">
            <mxPoint x="520" y="270" as="sourcePoint" />
            <mxPoint x="440" y="240" as="targetPoint" />
          </mxGeometry>
        </mxCell>
      </root>
    </mxGraphModel>
  </diagram>
  <diagram id="SnUn2JZwSMzWwUwXfHQm" name="第 2 页">
    <mxGraphModel dx="1251" dy="714" grid="1" gridSize="10" guides="1" tooltips="1" connect="1" arrows="1" fold="1" page="1" pageScale="1" pageWidth="1169" pageHeight="1654" math="0" shadow="0">
      <root>
        <mxCell id="S9BbSA8cTpfGPOqmx9KO-0" />
        <mxCell id="S9BbSA8cTpfGPOqmx9KO-1" parent="S9BbSA8cTpfGPOqmx9KO-0" />
        <mxCell id="S9BbSA8cTpfGPOqmx9KO-4" value="" style="edgeStyle=orthogonalEdgeStyle;rounded=0;orthogonalLoop=1;jettySize=auto;html=1;" edge="1" parent="S9BbSA8cTpfGPOqmx9KO-1" source="S9BbSA8cTpfGPOqmx9KO-2" target="S9BbSA8cTpfGPOqmx9KO-3">
          <mxGeometry relative="1" as="geometry" />
        </mxCell>
        <mxCell id="S9BbSA8cTpfGPOqmx9KO-2" value="数据源" style="rounded=1;whiteSpace=wrap;html=1;" vertex="1" parent="S9BbSA8cTpfGPOqmx9KO-1">
          <mxGeometry x="70" y="280" width="80" height="40" as="geometry" />
        </mxCell>
        <mxCell id="S9BbSA8cTpfGPOqmx9KO-6" value="" style="edgeStyle=orthogonalEdgeStyle;rounded=0;orthogonalLoop=1;jettySize=auto;html=1;" edge="1" parent="S9BbSA8cTpfGPOqmx9KO-1" source="S9BbSA8cTpfGPOqmx9KO-3" target="S9BbSA8cTpfGPOqmx9KO-5">
          <mxGeometry relative="1" as="geometry" />
        </mxCell>
        <mxCell id="S9BbSA8cTpfGPOqmx9KO-3" value="指标库" style="whiteSpace=wrap;html=1;rounded=1;" vertex="1" parent="S9BbSA8cTpfGPOqmx9KO-1">
          <mxGeometry x="210" y="270" width="120" height="60" as="geometry" />
        </mxCell>
        <mxCell id="S9BbSA8cTpfGPOqmx9KO-5" value="" style="whiteSpace=wrap;html=1;rounded=1;" vertex="1" parent="S9BbSA8cTpfGPOqmx9KO-1">
          <mxGeometry x="410" y="270" width="120" height="60" as="geometry" />
        </mxCell>
      </root>
    </mxGraphModel>
  </diagram>
</mxfile>
